# xmcd
#
# Track frame offsets: 
#        150
#        10779
#        35566
#        60772
#        88691
#        104983
#        125496
#        138228
#        159795
#        175890
#        201812
#        221056
#        250949
#        262377
#
# Disc length: 3734 seconds
#
# Revision: 0
# Processed by: cddbd v1.5.2PL0 Copyright (c) Steve Scherf et al.
# Submitted via: ExactAudioCopy v0.99pb4
#
DISCID=c70e940e
DTITLE=Various Artist - Feelin' Good
DYEAR=2000
DGENRE=World
TTITLE0=Frank Cunimondo Trio - Feelin' Good
TTITLE1=Wynton Marsalis - One By One
TTITLE2=Sarah Vaughan and Oscar Peterson - I've Got The World On A Strin
TTITLE2=g
TTITLE3=Charlie Palmieri - Fiesta A La King
TTITLE4=Nina Simone - My Baby Just Cares For Me
TTITLE5=Richard "Groove" Holmes - Groove's Groove
TTITLE6=Dinah Washington - Mad About The Boy
TTITLE7=Mongo Santamaria - Power Struggle
TTITLE8=Carmen McRae - Take Five
TTITLE9=Lionel Hampton - Volare(Nel Blu, Dipinto Di Blu)
TTITLE10=Ella Fitzgerald and Duke Ellington - Let's Do It(Let's Fall In 
TTITLE10=Love)
TTITLE11=Zoot Sims - The Girl From Ipanema
TTITLE12=Frank Cunimondo Trio - Beyond The Clouds
TTITLE13=Gilberto Gil - Aquele Abraco
EXTD=
EXTT0=
EXTT1=
EXTT2=
EXTT3=
EXTT4=
EXTT5=
EXTT6=
EXTT7=
EXTT8=
EXTT9=
EXTT10=
EXTT11=
EXTT12=
EXTT13=
PLAYORDER=
